<?xml version="1.0" encoding="utf-8"?><svg viewBox="0 0 30 30" xmlns="http://www.w3.org/2000/svg" xmlns:xlink="http://www.w3.org/1999/xlink"><style>:root>svg{display:none}:root>svg:target{display:block}</style><svg fill="none" viewBox="0 0 30 30" id="Business" xmlns="http://www.w3.org/2000/svg"><g clip-path="url(#aa)" stroke-width="1.5"><path d="M6 11v-1a2 2 0 0 1 2-2h3a2 2 0 0 1 2 2v1M18 29h11M27 29V3a2 2 0 0 0-2-2h-3a2 2 0 0 0-2 2v7.363M20 29V6a2 2 0 0 0-2-2h-3a2 2 0 0 0-2 2v5" stroke="#0A467E" stroke-miterlimit="10" stroke-linecap="round" stroke-linejoin="round"/><path d="m1 19.31 6.644 2.724a2 2 0 0 0 1.57-.023L16 19.001M12 17v-1a2 2 0 0 0-2-2H8a2 2 0 0 0-2 2v1" stroke="#EB174B"/><rect x="1" y="17" width="15" height="9" rx="2" stroke="#EB174B"/></g><defs><clipPath id="aa"><path fill="#fff" d="M0 0h30v30H0z"/></clipPath></defs></svg><svg fill="none" viewBox="0 0 30 30" id="Discount" xmlns="http://www.w3.org/2000/svg"><g clip-path="url(#ba)"><path d="M10.24 24.916c-.25 0-.375-.113-.375-.338 0-.068.022-.13.066-.186l8.065-10.986c.076-.102.152-.18.229-.237.076-.056.19-.085.342-.085h1.16c.25 0 .375.113.375.338 0 .068-.022.13-.065.186L11.97 24.595c-.076.102-.152.18-.228.237-.076.056-.19.085-.343.085h-1.16Zm8.213.084c-.74 0-1.333-.203-1.78-.608-.435-.406-.68-.947-.734-1.623a21.19 21.19 0 0 1-.017-.777c0-.226.006-.496.017-.812.043-.687.277-1.233.702-1.64.435-.416 1.04-.624 1.812-.624.784 0 1.388.208 1.812.625.425.405.659.952.702 1.64.022.315.033.585.033.81 0 .226-.01.485-.033.778-.043.676-.288 1.217-.734 1.623-.447.405-1.04.608-1.78.608Zm0-1.487c.185 0 .327-.04.425-.119a.865.865 0 0 0 .244-.32c.055-.136.087-.271.098-.406.022-.26.033-.496.033-.71 0-.214-.01-.445-.033-.693a1.068 1.068 0 0 0-.195-.575c-.11-.18-.3-.27-.572-.27-.261 0-.452.09-.571.27a1.15 1.15 0 0 0-.18.575 15.993 15.993 0 0 0 0 1.403c.01.135.038.27.082.405a.864.864 0 0 0 .245.321c.108.08.25.119.424.119Zm-6.906-4.462c-.751 0-1.35-.197-1.796-.592-.435-.405-.675-.946-.718-1.622A10.627 10.627 0 0 1 9 16.059c.01-.225.022-.496.033-.811.032-.676.26-1.217.685-1.623.436-.416 1.045-.625 1.829-.625s1.388.209 1.812.625c.425.406.653.947.686 1.623.022.315.033.586.033.811 0 .226-.011.485-.033.778-.033.676-.272 1.216-.719 1.622-.446.395-1.039.592-1.78.592Zm0-1.47c.174 0 .316-.04.424-.119a.732.732 0 0 0 .245-.304 1.08 1.08 0 0 0 .082-.406c.022-.259.033-.496.033-.71 0-.214-.011-.445-.033-.693a1.067 1.067 0 0 0-.196-.574c-.109-.18-.294-.27-.555-.27-.272 0-.463.09-.572.27-.108.169-.174.36-.195.574a15.836 15.836 0 0 0 0 1.403c.021.135.054.27.098.406.043.124.12.225.228.304.109.079.256.118.44.118Z" fill="#EB174B"/><path d="M1 9h28v17a3 3 0 0 1-3 3H4a3 3 0 0 1-3-3V9ZM1 6a3 3 0 0 1 3-3h22a3 3 0 0 1 3 3v3H1V6Z" stroke="#0A467E" stroke-width="1.5"/><path stroke="#0A467E" stroke-width="1.5" stroke-linecap="round" stroke-linejoin="round" d="M7.75.75v4.5M23.75.75v4.5"/></g><defs><clipPath id="ba"><path fill="#fff" d="M0 0h30v30H0z"/></clipPath></defs></svg><svg fill="none" viewBox="0 0 30 30" id="Income_$" xmlns="http://www.w3.org/2000/svg"><path d="M11.544 16v-1.402a5.32 5.32 0 0 1-1.367-.336A4.085 4.085 0 0 1 9 13.532l.765-1.093c.343.262.69.472 1.044.631.353.159.73.238 1.132.238.48 0 .838-.102 1.074-.308.235-.215.353-.514.353-.897 0-.309-.098-.566-.295-.771a3.102 3.102 0 0 0-.75-.561 9.842 9.842 0 0 0-.955-.477 6.911 6.911 0 0 1-.97-.546 3.054 3.054 0 0 1-.736-.757c-.196-.3-.294-.669-.294-1.108 0-.654.196-1.196.588-1.626.392-.44.921-.715 1.588-.827V4h1.177v1.402c.47.056.872.187 1.206.392.343.197.651.43.926.701l-.868.94a3.485 3.485 0 0 0-.794-.547 1.974 1.974 0 0 0-.912-.196c-.402 0-.715.098-.94.294-.226.187-.339.463-.339.827 0 .28.098.514.294.701.196.178.441.346.735.505.304.15.628.303.971.462a5 5 0 0 1 .956.547c.304.215.554.481.75.8.196.308.294.695.294 1.163 0 .673-.196 1.238-.588 1.696-.392.449-.956.738-1.691.87V16h-1.177Z" fill="#EB174B"/><path d="m3.857 28 9.511-9.494 5.56 5.55L28 15" stroke="#0A467E" stroke-width="1.5" stroke-linecap="round" stroke-linejoin="round"/><path d="M24.286 15H28v3.714" stroke="#0A467E" stroke-width="1.5" stroke-linecap="round" stroke-linejoin="round"/><path d="M23.727 10C22.587 4.85 17.993 1 12.5 1 6.149 1 1 6.149 1 12.5A11.47 11.47 0 0 0 4.754 21" stroke="#EB174B" stroke-width="1.5" stroke-linecap="round" stroke-linejoin="round"/></svg></svg>